<mxfile host="app.diagrams.net" agent="Mozilla/5.0 (Windows NT 10.0; Win64; x64) AppleWebKit/537.36 (KHTML, like Gecko) Chrome/133.0.0.0 Safari/537.36 Edg/133.0.0.0" version="26.0.16">
  <diagram name="页-1" id="Page-1">
    <mxGraphModel dx="1834" dy="1022" grid="1" gridSize="10" guides="1" tooltips="1" connect="1" arrows="1" fold="1" page="1" pageScale="1" pageWidth="827" pageHeight="1169" math="0" shadow="0">
      <root>
        <mxCell id="0" />
        <mxCell id="1" parent="0" />
        <UserObject label="" tags="背景" id="21">
          <mxCell style="vsdxID=150;fillColor=none;gradientColor=none;strokeColor=none;shadow=1;spacingTop=-3;spacingBottom=-3;spacingLeft=-3;spacingRight=-3;points=[];labelBackgroundColor=none;rounded=0;html=1;whiteSpace=wrap;" parent="1" vertex="1">
            <mxGeometry x="584" y="264" width="102" height="115.5" as="geometry" />
          </mxCell>
        </UserObject>
        <mxCell id="22" style="vsdxID=151;fillColor=#2c2c2c;gradientColor=none;shape=stencil(pZRLDoMgEEBPw5YgqJG1tfcwESupFYP2d/tC0KrQUkx3w/CG+TKA5ENT9gxgNIxSnNmdV2MDyAFgzLuGST4qCZACkLwWkp2kuHaVOfelJrV0ETf9wsPYIRhTbYTR01IcDd7ybo1bLE1DWUohij2wHYfik8jHT65nPkLoO704D8Un34HRzK8FJmvj/jq60fh75CbrSdWpo5fdNyu/8O0k0hRm2YZPfC1y6EXz0YDAiPzFvxWB8ezl92W7pZWwfPCat63ZD+t7eyEolVkmpHgB);strokeColor=none;strokeWidth=0;shadow=1;spacingTop=-3;spacingBottom=-3;spacingLeft=-3;spacingRight=-3;points=[];labelBackgroundColor=none;rounded=0;html=1;whiteSpace=wrap;" parent="21" vertex="1">
          <mxGeometry width="78" height="78" as="geometry" />
        </mxCell>
        <mxCell id="23" style="vsdxID=152;fillColor=#2c2c2c;gradientColor=none;shape=stencil(nV3Zsua2jX6avlWJpLhdZ3mP1MQZd41jpzpOxn77kDlHBPR9FCj13Wk18EMk9oXUl/CHf/74l3/88MXv//z12y//98P/f/3rrz9+CX/84v3Xn3/84dvXX9tfX8KfvoQ//O2Xbz/877df/vXzXz/+/Y+/dMj+199/+Xf/hd8+8NKWjo7k998/HuxbLv998OcP8P/517cPePfx/8cW8ifC5xO3pY8Hv/mPB2Hbz9+UJ/4TJnw88VsonzCfT+IWnEXYbTldCeftOK6U/RavhOtWr3SPzR9Xus5th7nivAUg7NomXAk7v+35StoFeb2TFJCuW6rmkqO87XgZX4H0sZVyJX0MjoTxLjtsd9uqbNJu2xKvtJtowLLLBpT3K10lXWEuXj99/fmNNF6Ft55rOMGPzdkb2n6vXhfV9qrAhjoRcX/KZoYNdSRHeXN+saE70C5bRGbumycRPvlwEm+77kmQTNqZeFm3nK+k0xYdUvYgR3Gr4Uq5bHuwzUWFRafNOaSMaz623eGaD9jvsJVkUW6bW66UGwbYi7rBksN43d8CyViYC9lVhJcyCSLsxHCcIm8vq3GO9LLG67pK2RKao1NEZEuz/NIwCimaxOPQlpN4PAVAiA9t+X2YiYTszBvYo6YezrT/bU3OX2mL6dYrryBMzTYj9SrLCAPoMJdevXi1k3wY5moI1LFlEKkG5cF61MT0V17I7TsajwP8bm3iDDsfgHDjFrDcbeau10AWc9+iB8J+OykNR7AFEDct6cMZXEQdFGmlGaBIYVAcirebmtR45UGYm19HhkY0EZGsYoM5nfLvw/EF0yA3FFDiPAIiJUvgXcXwD9LNpoFFruca7gUZOSpRkh97P1Y0TGVCy7iLVxHPZNuPRgm2vAxnO1RYfNNJPG8VQqmJCjcHbGpQQ4nhSjyO3Rsr3yl4lfhKibIHD3ycSn6/6x6IhzO2uegRKrAACcsDEd8tRVpqxlWTQhGfPaKSaHr5hoKq1HAK+PkG5dA2N/MDNqpB7RiiB4itrgsMIh7nCx+nF5gjJHElnwjxzFDuVhhH2DJWGMeLjhUeEmf7AQXeJ7DOdiBTfBrOHoh8wMTLDyUd5Jslwg1WUCf9cv7WfL8UxmegsJtBUNhPQ6AQvGmNe7QJ7r07EQhsmrmooCEN6oAd7gHHdYENyI4WUXx1vCS0McdrAVMm0hRUhTNXeLH0gEl1N8DgYzsQ2OTgiHay+MSMfY0Qz/eaI7hTUG4RJtuRQNUER3MjJtgP8Mvdt4Cl7BmmLQYSIJ2PMgUFDcoD6WbamDqqmQTC90vHGLc9GrUTEYUDfFSHAj/RdLCCHRWop8x9i9DYfbWjJA1HtBEmW1KBI4KjOYJFkAYV2C4cwJIGVWz6LBFt2QdLowPtbCb7KEQfRcKO1Sby0FzMAX51Ig8dai0PAvWUva8Rkm0d2js5G2GyJQEDqcTWoZKtblBsqxNkJC2UcDZ5UX03UCa2iagXkZl78xTqooikrZ4bOJkNRIKs5dhH9Ul8hZjmgFAP+fsewUPBCA2EDT3zFSANgqP3YzhYP6AcWwd03Q3Kzso1p0/6YWKdgPiBMSFHLA3GzqV0KHSSjmLyjKVHSbnENhRcejzrC085G8+6wFOEDEEnBb0K5Vxh037IVXVofKbou4TG90F3g4rmDuto3g2chFmNygyEfkLrq1IOoZ+N/aKkpsNbCCpv+kTwZ33qPm1z4NuiFLBU2hYg0oqRw4066lFjgXFRBWk4KMINB4Ktg0vi8sPS12mbA96tLaWa0dbhxADL8lG+OhQuX7pIg76jYkjb/nihf+VXw4hXa9fFxlC5ZlhIIN7B+4XCKQzZD4w2Dolr1H4ksCjHIaWMgEJzRz5KECXiEMGYd8MESW6UR4N+Gn5axGHR2Uyj1qKW76A61aBG90WWv0cijz2atvuHJQ4K4xl7lbv6XgR/lm3utqRQsyEGyXT8gCqooQe51wZVoWIn0nVHn4O9GIklbd1YrdRycxJz1ANtUN6k33AqWwjsIrVtxLp7Xz+IhIYKN/t/ZZjGeMThOOKK74VHGaUNEQx5skORpgMdvB9gIbo+vlXRrugsDwdY7PYoP5CHdDa7nluoKCMHav0J5TFLoVnWj0UqDSXyYJXhNMYz/tZB9TkCSBw6MdqSShmJdo9+QLEPDWCz035W8J/78IaTOIQY0YEfUNgVVIHGSd69j2CS59Wr2MgPKOxo6DgrDKiCy8cIDsYlvJjURzFikpbSPAal9cVRxdchMK4vDZuoQ2BcX5YBiKcheMMplehj3TsV6j/qRCEw1OmTMAWB7VIYI/iwkpy8Y8+S0igazXDbJIsDi9KAUH51rnc2wDx3hlZZZMNBD6eyUz+A0MEfPNKV2cEt8+fJ6j3Nh2TuRuok/2RvlZUEhHrK3tcIdv2jvVNeIEx2JIDG6dqNcASTEl0HEo6AQVsWmLIyQpIlYmu6QWUsd+ZhCRV5VLheXzPteVs+kpe6ncgDZiC6BKjkAYutdjWS2fsewS6QdvvgbITJhkSwgLq4K1uCGho45OgMgZAnhNOF3AsEjgv0yjY42ImFCH5G/0CBWNXfM8/d6Mq+HxuLfUHdJRCROLDgazcsJhx+i7DoobBIEMIDkdD9n3uR0L2ke5GQsURDJCAK73VQNlFEX02v3pqoVYtOm76TeqKlByjJ6Q6iSEMGaVw0MyfMfY1g91e70TpshJk0YLtUNYZlS0a2pdrHExeOPctwZrKGx0Bp8DQipv3KSd+dwZ8VwSw79zo2ksEBrFqpQEPmBgKS32lEjeYWlgy2JyMYgWYvKAYuNDqkpzrOGFhFyjJ6gmXwSQy+nD3R0b3MnuAMr0oUhPyOKdZBY584eLPKcBajPTqJ+kQIJ1Pvc7gMQShNKHsaNnC7DH/eJ5ANyqzA68RUBqfQu+kk18MPW9mzzGDdJ+94tMGRZOkMX8a2sL0c2bf2ydd7TnFxosvCq/LHe4Rw6vx9gQdnBB1HG7oMJDuCNeBJgUmE5r7AhdGWE76qAtcB4Xc/OIAFLi6wuTEDYNT3UNebmcZqzoFDsQ0IOwAKSOThesRnUY1csZfKo+8Rxhmdu/1QKGo/IN7QZWLhR8EN4QJ0H6y0FVSVtu/lQZfJhT4610kBXmT7vgFQ0D45aoHqNsFJ31M6eHB/nfZ/1bFYcJibKO8RUEgnbaKBoraE20QZ4h2tSLddqqWG6vaXSIQHm61baZ7l5r5Jt7RQuv0ny8cWgOokehQ1IS9AykIYzp06mivuUot1jQDzaejDZj1kdqG4G6rRrLYD7HVvYXP4UOzjVTsfitnpiGCoVK6Z+As9963skzWts54Uh9OmWH8OHqL7Rb36yNCxWw12v0Zo4bjVtac3egv/dsUEf93RLkc0wRuNeoPj0exjMxbA8Mc47jJHoDdqCPbRJieHpsTIOlCifowLwtAGFcCiOs/n9dLiREzDoUmqREO/Tqpeij52eRsUzqHg8mG71CmkZ/tLCAsGqje6kRDaELVUKSlgT09vm5QUMOWbMESg7hnisMQT6LCFFhvPbxlYHMPN+lcCTAigg0Um0J5RyOLDH7GQ4FcyQm+01MEyqiGWDtKB75kKVgxq1hrII/8TDfT76bwtDex1HQhzbQ3s52f9m91lBJt9+o0eaqBeqqGBPOc700Dix1oBC3ZhZvqnRMbQPyWKD/VvrU5X/Sv7CKyf6V/ZvzznHgAvZIPfZaV5ZRQ4Lc0rXNKeqF5xlPIvda94CiEnuleUGb/XvQZVwNjauleCVDKe7S8hLLin3uih7uml3uue3rZ73ZswZKl8hTvAE+3TYnOvfVocn2nfA2UC7ctSd3xGgW75WLCQ4FcyQm+01MGMx7FnKph5CGOigsoqPlbBQnfbzFSwnqmMqYKVxspsFayzmRVrexlhwb+KZdi1CqqlGiqots1QQWbIWgUz95QmKpjxuqGZBmYqy6/0Y61QVw3MWQLxjye9jGzWDRrK2aEbc1WJBnsz17kb1AF1PQ0ls432bRp5Mkg5EmlNn27iKXS0Iica/InjOOAdfWVTpBeyI/0kqZY0Q6hrmKTWJs0Q+xRbjjTXliZTPnSTSm/yIHku8wvUHflAJx/0L0vPFq8ESjvdR6ChpBG22H5PPWvV6Rv0A5XNUsCrrfryoWo2gOYDFxFb7K/h4+ki5wgHqiMhTPiBU1eCY01UNKjK/MBLt1KCqcXZTAXSz1RU7lyDMmLimznaWvCOmVRWQ5BBmofS9a6ojoHGaPH8+0waDFc24e0r6IzVekJwNvxsI6D/KDgWI9RMkKGYMsz1XDFzoEtS2iMPjjfzOHd7hKedBereLmawy5mPZGnrKfTJL8lNY4p+te1ykpXJK5EiJJxmb0Bx4paA+gOvjJcrKpkzvHKjhad7J165PbKtADvlXOiKqx5t4OZPnGKlZqdA3WfCHryS/mVJfLDsl6VPqBIfPIDVl39ZPyU+10Sxb70BruYivxM+LwZTCo9edn542I8wMgWDH+XYwCiv2RHPsyImOxJlJfolA0OFm+VT1ufdm/0tMrnwnfB5MZqtUYQfEaKWSVYy40el2xiWDOk3oqFxZoZUR+M6+i0DQ4WH69c4Yi8xaG1QeFGNNmInfY/TIUvr2FBw9yPtfr/dDLUhUquzcp1q6RpqoBugtNPxA+qBa6zqFt2nrrFGts7sGhtUikwf15/oji1x83f0M91f2ue5kX6iozgtNMGcpfI1vD3MsaoUQQrigvAG3ors9PvMoCe8wJFMHLitkYNlFdKGAVXfBst9izlYxty9QeEx6Ras80WUeCFOyqv7AxPH6mmMDevlI/lI8y/14FzBTq4mfH2NYKZ7E1EI9kB65UtRE13fNWOHp9xtxo9VLq1xJJcfF0V6fsn7WkK3S8iPVS2hXy+Iy+daQreeuH7pcSm7PBrPUkrxK6+UoFY3KSVNvGIssztK0SvGvLLL7BVj4nslHU0P6IKb0Ee7GCGKIfI73XMcj9mFwAUraXQxYSl8KXtaXapZ5PyIrH5yKy+dCM9culZQsvvJChIpiIvFPDHLUeV7BHwl2pJExWu9WImb6dqYRFPVJfKlCUuWRJrQizSvX7iWosUmDChMoVfyWPhA6aSyrFMbWX1B8gpKBMIYEOQka8Ve1UX7XoS8KO5NGrx9NBwZstMMbYOitGGfGQh7yD9XctiRry7NhRxEjHxcTLUahH42ZgQfNCegn1ix3ddLkZYRIISMl3nDK1WZ2fxOhOa7rXO/kzW8Rni7aELAbyV4KEofp6LeyS2ZkUlNutBRXHVcaLg1GjNuL2vdLlZx5rDXmf09fIt/ocu/QqDDJ2lcwH2nRjvlf22pdM5uJ7Oe6OsRmrqEvbs1RsoLPE6tfriDK/iVeLyFX4hfdou7UFn81Hnye/FreSze9MLilw8Iaheb10vZr7izQiDxawh2MXAifjnwwXwWP9XbMeSvs8M+togrdC+3cAW/ko+38PidIwjjCt7kQUdvpK0qgRXetHnQZWBFesZjsF9KQlIONW0NfOqhjlt7ZBaSiox1fFJjBAtY8m0g9v1KLmwVQpWOA7RdwrZ05cMdLlCJqQ82mNQ91Td7/AuBktux+VL4KpQiPQKJpO1buDNdNtlRrrQTRa0T2lzqJlkD5VrKJswb73hLU4sGDrN459TlvzJjU2F5ztEF/ZWv0px8+6iuPt6iZ6pVORecZz9rAOa88le0qrQlVBnJ1OVMGVnlrt5Bh2R6MRkPdcqFxWHskF2gSNRSLXynd6aycSnU0eX7iktZ3A5Q6aoI1Z8YxQn5rJOqFwBxLXXhRuzo6MhKTjn0v04+NU1YfFGk0KRW4Wqk/naQ2OlRIxP7BLl2WX5ThHtkpfJn0rj4VgPbrCzn7KU8vOiJcPFrfChocLdQS6SOVqhoVaExol6zsqkXtpmJVl8DTar26gMEaZMPuhDzOQVaSAt9IgjmN4qtOwed9OyzjJAB1UgxaN25ssvfCGrbW+1vxkS8bLEXs7GwGaRC5Md740dVmiWrbDTDSrYq0j94+UrJFcOZu0QfD7Y9GAKtkw9+Vapslko3D00Kq2X1sSLhj7ad9O2rsLHtxKvvtOSFmehRz8IU1PaHfM/zb19/+unjc6D6//H7n+3Rx7dDw5/+Aw==);strokeColor=none;strokeWidth=0;shadow=1;spacingTop=-3;spacingBottom=-3;spacingLeft=-3;spacingRight=-3;points=[];labelBackgroundColor=none;rounded=0;html=1;whiteSpace=wrap;" parent="21" vertex="1">
          <mxGeometry x="3" y="4" width="71" height="70" as="geometry" />
        </mxCell>
        <UserObject label="&lt;div style=&quot;font-size: 1px&quot;&gt;&lt;/div&gt;" tags="流程图" id="24">
          <mxCell style="verticalAlign=middle;align=center;overflow=width;vsdxID=156;fillColor=none;gradientColor=none;shape=stencil(nZBLDoAgDERP0z3SIyjew0SURgSD+Lu9kMZoXLhwN9O+tukAlrNpJg1SzDH4QW/URgNYgZTkjA4UkwJUgGXng+6DX1zLfmoymdXo17xh5zmRJ6Q42BWCfc2oJfdAr+Yv+AP9Cb7OJ3H/2JG1HNGz/84klThPVCc=);dashed=1;strokeColor=#000000;spacingTop=-1;spacingBottom=-1;spacingLeft=-1;spacingRight=-1;points=[[1,0.5,0],[0.5,0.5,0],[0.5,0,0]];labelBackgroundColor=none;rounded=0;html=1;whiteSpace=wrap;" parent="21" vertex="1">
            <mxGeometry x="-46" y="-35.5" width="146" height="153" as="geometry" />
          </mxCell>
        </UserObject>
        <UserObject label="&lt;div style=&quot;font-size: 1px&quot;&gt;&lt;font style=&quot;font-size: 14.11px; font-family: SimSun; color: rgb(0, 0, 0); direction: ltr; letter-spacing: 0px; line-height: 120%; opacity: 1;&quot;&gt;串口3&lt;br&gt;&lt;/font&gt;&lt;/div&gt;&lt;div style=&quot;font-size: 1px&quot;&gt;&lt;font style=&quot;font-size: 14.11px; font-family: SimSun; color: rgb(0, 0, 0); direction: ltr; letter-spacing: 0px; line-height: 120%; opacity: 1;&quot;&gt;&lt;br&gt;&lt;/font&gt;&lt;/div&gt;" tags="背景" id="pjcTLgV8slz2mf12lj3D-119">
          <mxCell style="verticalAlign=middle;align=center;overflow=width;vsdxID=159;fillColor=none;gradientColor=none;shape=stencil(nZBLDoAgDERP0z3SIyjew0SURgSD+Lu9kMZoXLhwN9O+tukAlrNpJg1SzDH4QW/URgNYgZTkjA4UkwJUgGXng+6DX1zLfmoymdXo17xh5zmRJ6Q42BWCfc2oJfdAr+Yv+AP9Cb7OJ3H/2JG1HNGz/84klThPVCc=);strokeColor=none;spacingTop=-1;spacingBottom=-1;spacingLeft=-1;spacingRight=-1;points=[];labelBackgroundColor=none;rounded=0;html=1;whiteSpace=wrap;" parent="21" vertex="1">
            <mxGeometry x="27" y="80" width="44" height="19" as="geometry" />
          </mxCell>
        </UserObject>
        <UserObject label="&lt;div style=&quot;font-size: 1px&quot;&gt;&lt;font style=&quot;font-size: 14.11px; font-family: SimSun; color: rgb(0, 0, 0); direction: ltr; letter-spacing: 0px; line-height: 120%; opacity: 1;&quot;&gt;串口1&lt;br&gt;&lt;/font&gt;&lt;/div&gt;" tags="背景" id="27">
          <mxCell style="verticalAlign=middle;align=center;overflow=width;vsdxID=159;fillColor=none;gradientColor=none;shape=stencil(nZBLDoAgDERP0z3SIyjew0SURgSD+Lu9kMZoXLhwN9O+tukAlrNpJg1SzDH4QW/URgNYgZTkjA4UkwJUgGXng+6DX1zLfmoymdXo17xh5zmRJ6Q42BWCfc2oJfdAr+Yv+AP9Cb7OJ3H/2JG1HNGz/84klThPVCc=);strokeColor=none;spacingTop=-1;spacingBottom=-1;spacingLeft=-1;spacingRight=-1;points=[];labelBackgroundColor=none;rounded=0;html=1;whiteSpace=wrap;" parent="1" vertex="1">
            <mxGeometry x="538" y="264" width="40" height="20" as="geometry" />
          </mxCell>
        </UserObject>
        <UserObject label="&lt;div style=&quot;font-size: 1px&quot;&gt;&lt;font style=&quot;font-size: 16.93px; font-family: SimSun; color: rgb(0, 0, 0); direction: ltr; letter-spacing: 0px; line-height: 120%; opacity: 1;&quot;&gt;STM32核心控制板&lt;/font&gt;&lt;/div&gt;" tags="背景" id="50">
          <mxCell style="verticalAlign=middle;align=center;overflow=width;vsdxID=184;fillColor=none;gradientColor=none;shape=stencil(nZBLDoAgDERP0z3SIyjew0SURgSD+Lu9kMZoXLhwN9O+tukAlrNpJg1SzDH4QW/URgNYgZTkjA4UkwJUgGXng+6DX1zLfmoymdXo17xh5zmRJ6Q42BWCfc2oJfdAr+Yv+AP9Cb7OJ3H/2JG1HNGz/84klThPVCc=);strokeColor=none;spacingTop=-1;spacingBottom=-1;spacingLeft=-1;spacingRight=-1;points=[];labelBackgroundColor=none;rounded=0;html=1;whiteSpace=wrap;" parent="1" vertex="1">
            <mxGeometry x="545" y="230" width="140" height="31" as="geometry" />
          </mxCell>
        </UserObject>
        <UserObject label="&lt;div style=&quot;font-size: 1px&quot;&gt;&lt;/div&gt;" tags="流程图" id="82">
          <mxCell style="verticalAlign=middle;align=center;overflow=width;vsdxID=251;fillColor=none;gradientColor=none;shape=stencil(nZBLDoAgDERP0z3SIyjew0SURgSD+Lu9kMZoXLhwN9O+tukAlrNpJg1SzDH4QW/URgNYgZTkjA4UkwJUgGXng+6DX1zLfmoymdXo17xh5zmRJ6Q42BWCfc2oJfdAr+Yv+AP9Cb7OJ3H/2JG1HNGz/84klThPVCc=);dashed=1;strokeColor=#000000;spacingTop=-1;spacingBottom=-1;spacingLeft=-1;spacingRight=-1;points=[[1,0.5,0],[0.5,0.5,0],[0.5,0,0]];labelBackgroundColor=none;rounded=0;html=1;whiteSpace=wrap;" parent="1" vertex="1">
            <mxGeometry x="297" y="400" width="146" height="153" as="geometry" />
          </mxCell>
        </UserObject>
        <UserObject label="" tags="背景" id="pjcTLgV8slz2mf12lj3D-123">
          <mxCell style="vsdxID=157;fillColor=none;gradientColor=none;strokeColor=none;spacingTop=-3;spacingBottom=-3;spacingLeft=-3;spacingRight=-3;points=[];labelBackgroundColor=none;rounded=0;html=1;whiteSpace=wrap;" parent="1" vertex="1">
            <mxGeometry x="625" y="366" width="21" height="11" as="geometry" />
          </mxCell>
        </UserObject>
        <mxCell id="pjcTLgV8slz2mf12lj3D-124" style="vsdxID=158;fillColor=#000000;gradientColor=#6cb9ff;shape=stencil(zZffcqsgEMafxsvsAAsC1/3zHk5rEqc2Zog9Td7+kCOJLh41bVrHO4Vl89vvWzAk+HDYZvs8EexQu+ot/yxe622Cj4kQxW6bu6L2Twk+Jfiwrly+cdXH7rV532fnyPPTe/XnnOHYrDMWhDyvEuzUjLB/b89NcFnsOsGcgR6OfflwTWbeTEpQGKJ5N5wdBXk9iWt2m4YIDEOAKgSFESFA2mFCA9YSQqPAyDFKC1ZTSiuBpZSUIxgR07KI1YCwFPYS839UDoqyRuExqUmvXBfUFkJc7bScgnbLCVzWKx3p6nXSOAxrTQzrjUA9hntla2Fbfy9sCmSEG6na7U+cbNCJbqatz30wbWdE4Ly7IHMvftaFBb6VQrw79UsKKTgwPpCUHVfZsTisXFVndVHtSMFl5jb5yv/gal1mm5C+mTp85vm+N/xtxLG6v4zIbkCMDpFp2alPKIEjWaD1ZdN+36deUuW3l1qST2N1z+DTDbJHPqXAVRIZK9V9IkgNxg4kXYpPI3XP4dO07NQnxYFTSbWB9E6f+kn9ftLy90T4CcS27l9pJerTDbJHPiGwqPX9p1zcJ0IqweBA0oXsp7G65/BpWnbqU+r/+KVkwQ98n/pJF/d9Gqt7hnPvBtmpT1oB9VUqwDu3Uy+n8Gfvkg69kaJn2EvTkvuH9mq6Lsqyudl25+OrrB9qrsH49Bc=);strokeColor=none;spacingTop=-3;spacingBottom=-3;spacingLeft=-3;spacingRight=-3;points=[];labelBackgroundColor=none;rounded=0;html=1;whiteSpace=wrap;" parent="pjcTLgV8slz2mf12lj3D-123" vertex="1">
          <mxGeometry width="21" height="11" as="geometry" />
        </mxCell>
        <UserObject label="" tags="背景" id="pjcTLgV8slz2mf12lj3D-128">
          <mxCell style="vsdxID=157;fillColor=none;gradientColor=none;strokeColor=none;spacingTop=-3;spacingBottom=-3;spacingLeft=-3;spacingRight=-3;points=[];labelBackgroundColor=none;rounded=0;html=1;whiteSpace=wrap;" parent="1" vertex="1">
            <mxGeometry x="545" y="284" width="21" height="11" as="geometry" />
          </mxCell>
        </UserObject>
        <mxCell id="pjcTLgV8slz2mf12lj3D-129" style="vsdxID=158;fillColor=#000000;gradientColor=#6cb9ff;shape=stencil(zZffcqsgEMafxsvsAAsC1/3zHk5rEqc2Zog9Td7+kCOJLh41bVrHO4Vl89vvWzAk+HDYZvs8EexQu+ot/yxe622Cj4kQxW6bu6L2Twk+Jfiwrly+cdXH7rV532fnyPPTe/XnnOHYrDMWhDyvEuzUjLB/b89NcFnsOsGcgR6OfflwTWbeTEpQGKJ5N5wdBXk9iWt2m4YIDEOAKgSFESFA2mFCA9YSQqPAyDFKC1ZTSiuBpZSUIxgR07KI1YCwFPYS839UDoqyRuExqUmvXBfUFkJc7bScgnbLCVzWKx3p6nXSOAxrTQzrjUA9hntla2Fbfy9sCmSEG6na7U+cbNCJbqatz30wbWdE4Ly7IHMvftaFBb6VQrw79UsKKTgwPpCUHVfZsTisXFVndVHtSMFl5jb5yv/gal1mm5C+mTp85vm+N/xtxLG6v4zIbkCMDpFp2alPKIEjWaD1ZdN+36deUuW3l1qST2N1z+DTDbJHPqXAVRIZK9V9IkgNxg4kXYpPI3XP4dO07NQnxYFTSbWB9E6f+kn9ftLy90T4CcS27l9pJerTDbJHPiGwqPX9p1zcJ0IqweBA0oXsp7G65/BpWnbqU+r/+KVkwQ98n/pJF/d9Gqt7hnPvBtmpT1oB9VUqwDu3Uy+n8Gfvkg69kaJn2EvTkvuH9mq6Lsqyudl25+OrrB9qrsH49Bc=);strokeColor=none;spacingTop=-3;spacingBottom=-3;spacingLeft=-3;spacingRight=-3;points=[];labelBackgroundColor=none;rounded=0;html=1;whiteSpace=wrap;" parent="pjcTLgV8slz2mf12lj3D-128" vertex="1">
          <mxGeometry x="3" y="2" width="21" height="11" as="geometry" />
        </mxCell>
        <mxCell id="pjcTLgV8slz2mf12lj3D-147" value="" style="shape=image;verticalLabelPosition=bottom;labelBackgroundColor=default;verticalAlign=top;aspect=fixed;imageAspect=0;image=data:image/png,iVBORw0KGgoAAAANSUhEUgAAAMgAAADICAYAAACtWK6eAAAAAXNSR0IArs4c6QAADZ1JREFUeF7tnV9yFDkSxqV27/ssc4DpiViImFNgTgI8AocwPsTCo+EkmFMQgTeCngPA8D6mtSvXFm63u6qkrExlqvT5yRFdKklf5q8y9adU3uEPCkCBQQU8tIECUGBYAQAC74ACIwoAELgHFAAg8AEoQFMAEYSmG0o1ogAAacTQ6CZNAQBC0w2lGlEAgDRiaHSTpgAAoemGUo0oAEAaMTS6SVMAgNB0Q6lGFAAgjRga3aQpAEBouqFUIwoAkEYMjW7SFAAgNN1QqhEFAEgjhkY3aQoAEJpuKNWIAgCkEUOjmzQFAAhNN5RqRAEA0oih0U2aAgCEphtKNaIAAGnE0OgmTQEAQtMNpRpRAIA0Ymh0k6YAAKHphlKNKABAGjE0uklTAIDQdEOpRhQAII0YGt2kKQBAaLqhVCMKAJBGDI1u0hQAIDTdUKoRBQBII4ZGN2kKABCabijViAIApBFDo5s0BQAITTeUakQBANKIodFNmgIAhKYbSjWiAABpxNDoJk0BAELTDaUaUQCANGJodJOmwKIB+eXtp41z602U5mQXNj9Wfuvc9fb7iz+2NLnaLtXreatl1GPZei4GkGi8lVs/jSYLwZ16507H3TlsnV9d+t3u49dXj9617fr3e3+rp9+4EJ5NahkvWKCeVQPSGzENiDETh21wfhu8O//+4uFly7B0mv7jbBqKKZXiA8i/+/bi4fnUlZZ/rxKQn0+34F7zixu2Prjz1qJK1NSH9cV05M1VvIvUO/f3eY2pbVWAyIJxaPiw3fkfT2o0ao4Ly4FxX88aI0o1gPzy9up0FdyHHOPPv3YZacIxHco+bPZbUJemVQDy4O3VmRNJp1IRqsuoU73S1zMO6N3rGsYnpgG5ecqFkw/O+ZupWv2/uscnXRQOF5b0tJ7GmgVEJ6VKRTCOT/zzWma8yo0zUvW7m3JZnhQxCYhtOOoxbpdKxTUMKxF4CCC7Kaw5QH799+dnwfsLyrNIr0w/lRnea0cVvcE3g/oGxyWmAKkncowvOvYrynFrizQwEYiT3clpWPnfdCcyGABx9iKJGUCWAccxJ+lW6b3327itpdsP5lwOON0eqPi33qycexz/m797gMOhJe5ha3xnApButmr9RULuOu4ZjmyetD5ukFTWDiQmAPnnm6sP/FscJA2Ie8srELbfXj76Xb6e8RrUAQEc2i5guP6bzY7/eq7ZQlVA6pyx0jRXg3Urz2ypAYJxR4POTuqy7qZRNUCQWpG8pclCwbnLv14+fKLReRVAljulq2HCNur0ITzXeEdHBZAHbz5/sb/9oQ3Hq6eXOrNaxQExsdW6Hq9AS/cVUJjVKg/Im6sAq0MBmgLlo0hRQBA9aG6BUnsKFI4iZQFB9ICvz1ag7LRvMUAevP3PxfyjZGarixssQYGCUaQcIIgeS3BNI30oNxYpAgi2lBjxqwU1o9S6SBFAsGq+IM8005UyUUQcEKyam/GoxTVk592TnBfPKAKIA2J1cB7398S3/EIIG7yLQnEd/TIl9mjJA2JwcH745LF3/pau83UPD3e5c+5j/NRBWK0e23yQyKdZooBYHJwPhWVsv49Qjr/q2tnTnVnaRyedZokCYjG9+vby4WCfW55MSE1XrEXb1HZTY7IsIObSq/GQ3DIgOU9iWxMvsmmWGCAW06uYQowdBNAsIITXWi1lBzlw50YSMUAsCXgrCgA55iA7f/177ndQLEURyTRLDhCTL0UBkGOAjI3Lhp64tiY15NIsEUAsPV3uGhiA3Hd4mnPZAsQ5qTRLBBCb449uGhNjkPuIUJzLnI0J46iU8YgIIDbHHwBkyCEogFh7+U1qHCIDiLnp3d41EEGOQ5KfZj0wZ+P8PqhEEHOh944KAGTQKTJeQrI6HU6JhFOQsEcQADIludXf077NYS21uqOmwDiEHRC74w+MQdLQ7PZjOXe97ddGbr9aZftzbhLjEH5ATK5/tDkGmb8rN363JOc7JV0Uimr7Xfiz/C5g/nGIACCWz71qZQwyvCtX5huG4+lZyQ2OlEXPscjKCki58Uf3Rab4abO0tKG7Kr4gNfa9iZgexvcecu7ZX2vlpavUNINvoS/tqV3qU9TcA/X6ABEYiFGAOCwj82TObVmas/Z35Xig5TgkH5QjujD7Bysg4gN05s7nul/K9ZqzPJSTPmZN2WZMDffaietDaFOxFGuW2AneR9l1mnBb1kuKPCUHWkzRZ47DUoCU3qeXmmKmGp03ggjPYHEPwFJFyr1Oa5WZos8ch6UAKf8AyUszp2zLDIjsDBbFIFMCcP8u7wBDLaY5xpxxCNUe0t+HoTwohlRlA2TOkyjZSZnzy+R6My6UTjOHm6IBCO1cKukImzNxMGVaNkDmPImmGnnnd+9e79z1+9w34LLqIFxcahpzrGkUx5g1sUKYNCnhJxQdxCNIiY7f7US3FpL7N/Y+SOcsu9Pce+atNuffPbVE7gB1ftTP/xRBkQhLAFcckFlPolQPmH3d8lfSc2aWWJw1I+2dM2OWZfqMNk3dly3FAiBTUpf6fXpXLns6mPDELgbHzQ4Lvs9G8wEiPMXL417LjyC3Ot3fjyW72h+2PrjzHyu/7Q+UjvU5t9744M7KbsWhTVgc8zEAsqcKS8rBQzLzXUrvys2tj7m7E2cP5NTGCIjsGkhOp4avbSmCUBQbP5u3ZJpEaf1+Ga61EADSRASZdrfUvL3k1vXpVg9fQV3EPLwjCyDzpwvnSJFTFhFkSK2ctYMa7J3TnzEPYgGk/BpIDhT71wKQo8olzEIdlrM+awlASIwAkGOyUdIR61EkZz1IPILUM3gDIMecgTKg1duUmfhkJERFsWle6+F2f20AR48eugFtzQCAJIIaLwMgGWIZvJSSr1sfd6bOyk2Zg2WQXs8CG1Ks42OQ/G3r1tNqADKF/tHfxwGRfpGH1OQihfLTLOl3OuZ22xQgVTnWwODN+qzMXIeZLJ8xqK0jY8iHXm6QXsVGxb7793e7Ng/HjTTTu4C78ebV2f+2y76eBE79AlOA1LAP6/7sTTx4ruwuU3WvSWjA8V3AJ7uTU2vfSJ/qDGX6+vCeLIN06/nolJD4fUgB7V258ywDQObph9ILV4CyQ4A9gphfMFq4E6B7wwoYAeTqdBXcBxgKClhTgLIAKhBBAIg1x0B7OgUACDwBCowoAEDgHlAAgMAHoABNAUQQmm4o1YgCAKQRQ6ObNAUACE03lGpEAQDSiKHRTZoCAISmG0o1ogAAacTQ6CZNAQBC002g1P+/VeJXl/G9Cr8Lf8ZDnG8ruj74lsma9C1254bvc7Lrvu8eVqvH8Vvv2MZvZiX902YV1l8EvM74LbsXjHbOfexPM7fW4LiRNL7HsfP+aYvAGNms2BIgaW/dWQMltqdFWEwAEsVf/gtT3bcvvr569M6i8+e2KR7Z00JUwQtTuZ6Rff345wCyb2esQHe2lTuz8o1FbnkMAfL5y+JEzjjlg9uwJe8n+9Wpkj25X5cZQOo4BibVWMuOGkMq1PLdj1QrxtnEsWNmU+/DcmjDcgDJ/6xxqtA1XLcoSJi+dMsCSD1nJQ27KddJfDWAMNbGxaRcAITPFQHHXS2XAImp74NUfTIh05OGD1c7d6o5M+DYZhItwZJiVXv0D+CYpLFWSDgWCdkAqXGxkCsET3rYAi6oERKOKV5WQKqayWpkjYOTzaogYcwMWFKsmwhSy6nfjOJxOmAN96rFxpzZARsgVQzUAcdsDmuAhGv8wZpimR+HAI7ZcPQ3sA4J1/iDHRCz4xDAwQaHeUiYbc2WYkXhLKZZWARkZ+PnDS1GEq71j76TzIB82viwvrDy9hrgkIOjeyB+2qzc+qmdT7LxbFDcV40VkHhjM9/PZg61sq5W790tQcI5eyUSQX4+VbTfUQccxYmzkG5xDs7FAFFfE8EiYHE4TAzchezOnmL1UURjLCIRYtW8rdKKNSKJ5FhTBJDyqVabbwFaZaj0i1fcM1eig/T9m5cYsEs+Paw6YA3tKjV4l4SDfaHwmOHkQm69Z1TV4OBcbezsH55JHOpRIqUWS7FEI4nQgIzLKXCfuwrwR5NyKXURQHgWlRAxagfvFpQZEaXww7EYIL1xe5FCcKfjK+5hG5zfeu8uLZ9/W7vTarQ/+oBz683KucfTfhBb2J+DfP3++4s/Dg4Cl+1BcUD2u9MJFf/Wm3g6eXcieneCeWkhZGXG3acUGPIFbT9QBWRKNPwOBbQVACDaFkD9phUAIKbNg8ZpKwBAtC2A+k0rAEBMmweN01YAgGhbAPWbVgCAmDYPGqetAADRtgDqN60AADFtHjROWwEAom0B1G9aAQBi2jxonLYCAETbAqjftAIAxLR50DhtBQCItgVQv2kFAIhp86Bx2goAEG0LoH7TCgAQ0+ZB47QVACDaFkD9phUAIKbNg8ZpKwBAtC2A+k0rAEBMmweN01YAgGhbAPWbVgCAmDYPGqetAADRtgDqN60AADFtHjROWwEAom0B1G9aAQBi2jxonLYCAETbAqjftAIAxLR50DhtBQCItgVQv2kFAIhp86Bx2goAEG0LoH7TCgAQ0+ZB47QVACDaFkD9phUAIKbNg8ZpKwBAtC2A+k0rAEBMmweN01YAgGhbAPWbVgCAmDYPGqetAADRtgDqN60AADFtHjROW4H/AsWIcjI3LpLfAAAAAElFTkSuQmCC;" parent="1" vertex="1">
          <mxGeometry x="302.5" y="440" width="94" height="94" as="geometry" />
        </mxCell>
        <mxCell id="pjcTLgV8slz2mf12lj3D-148" value="&lt;div style=&quot;font-size: 1px&quot;&gt;&lt;font style=&quot;font-size: 16.93px; font-family: SimSun; color: rgb(0, 0, 0); direction: ltr; letter-spacing: 0px; line-height: 120%; opacity: 1;&quot;&gt;手动遥控器&lt;/font&gt;&lt;/div&gt;" style="verticalAlign=middle;align=center;overflow=width;vsdxID=190;fillColor=none;gradientColor=none;shape=stencil(nZBLDoAgDERP0z3SIyjew0SURgSD+Lu9kMZoXLhwN9O+tukAlrNpJg1SzDH4QW/URgNYgZTkjA4UkwJUgGXng+6DX1zLfmoymdXo17xh5zmRJ6Q42BWCfc2oJfdAr+Yv+AP9Cb7OJ3H/2JG1HNGz/84klThPVCc=);strokeColor=none;spacingTop=-1;spacingBottom=-1;spacingLeft=-1;spacingRight=-1;points=[];labelBackgroundColor=none;rounded=0;html=1;whiteSpace=wrap;" parent="1" vertex="1">
          <mxGeometry x="297" y="405" width="126" height="27" as="geometry" />
        </mxCell>
        <UserObject label="&lt;div style=&quot;font-size: 1px&quot;&gt;&lt;font style=&quot;font-size: 14.11px; font-family: SimSun; color: rgb(0, 0, 0); direction: ltr; letter-spacing: 0px; line-height: 120%; opacity: 1;&quot;&gt;串口&lt;/font&gt;&lt;/div&gt;" tags="背景" id="pjcTLgV8slz2mf12lj3D-149">
          <mxCell style="verticalAlign=middle;align=center;overflow=width;vsdxID=159;fillColor=none;gradientColor=none;shape=stencil(nZBLDoAgDERP0z3SIyjew0SURgSD+Lu9kMZoXLhwN9O+tukAlrNpJg1SzDH4QW/URgNYgZTkjA4UkwJUgGXng+6DX1zLfmoymdXo17xh5zmRJ6Q42BWCfc2oJfdAr+Yv+AP9Cb7OJ3H/2JG1HNGz/84klThPVCc=);strokeColor=none;spacingTop=-1;spacingBottom=-1;spacingLeft=-1;spacingRight=-1;points=[];labelBackgroundColor=none;rounded=0;html=1;whiteSpace=wrap;" parent="1" vertex="1">
            <mxGeometry x="393.5" y="472" width="44" height="19" as="geometry" />
          </mxCell>
        </UserObject>
        <UserObject label="" tags="背景" id="pjcTLgV8slz2mf12lj3D-150">
          <mxCell style="vsdxID=157;fillColor=none;gradientColor=none;strokeColor=none;spacingTop=-3;spacingBottom=-3;spacingLeft=-3;spacingRight=-3;points=[];labelBackgroundColor=none;rounded=0;html=1;whiteSpace=wrap;" parent="1" vertex="1">
            <mxGeometry x="401.5" y="491" width="21" height="11" as="geometry" />
          </mxCell>
        </UserObject>
        <mxCell id="pjcTLgV8slz2mf12lj3D-151" style="vsdxID=158;fillColor=#000000;gradientColor=#6cb9ff;shape=stencil(zZffcqsgEMafxsvsAAsC1/3zHk5rEqc2Zog9Td7+kCOJLh41bVrHO4Vl89vvWzAk+HDYZvs8EexQu+ot/yxe622Cj4kQxW6bu6L2Twk+Jfiwrly+cdXH7rV532fnyPPTe/XnnOHYrDMWhDyvEuzUjLB/b89NcFnsOsGcgR6OfflwTWbeTEpQGKJ5N5wdBXk9iWt2m4YIDEOAKgSFESFA2mFCA9YSQqPAyDFKC1ZTSiuBpZSUIxgR07KI1YCwFPYS839UDoqyRuExqUmvXBfUFkJc7bScgnbLCVzWKx3p6nXSOAxrTQzrjUA9hntla2Fbfy9sCmSEG6na7U+cbNCJbqatz30wbWdE4Ly7IHMvftaFBb6VQrw79UsKKTgwPpCUHVfZsTisXFVndVHtSMFl5jb5yv/gal1mm5C+mTp85vm+N/xtxLG6v4zIbkCMDpFp2alPKIEjWaD1ZdN+36deUuW3l1qST2N1z+DTDbJHPqXAVRIZK9V9IkgNxg4kXYpPI3XP4dO07NQnxYFTSbWB9E6f+kn9ftLy90T4CcS27l9pJerTDbJHPiGwqPX9p1zcJ0IqweBA0oXsp7G65/BpWnbqU+r/+KVkwQ98n/pJF/d9Gqt7hnPvBtmpT1oB9VUqwDu3Uy+n8Gfvkg69kaJn2EvTkvuH9mq6Lsqyudl25+OrrB9qrsH49Bc=);strokeColor=none;spacingTop=-3;spacingBottom=-3;spacingLeft=-3;spacingRight=-3;points=[];labelBackgroundColor=none;rounded=0;html=1;whiteSpace=wrap;" parent="pjcTLgV8slz2mf12lj3D-150" vertex="1">
          <mxGeometry x="3" y="2" width="21" height="11" as="geometry" />
        </mxCell>
        <mxCell id="pjcTLgV8slz2mf12lj3D-155" value="" style="endArrow=classic;startArrow=classic;html=1;rounded=0;edgeStyle=orthogonalEdgeStyle;entryX=0.039;entryY=0.612;entryDx=0;entryDy=0;entryPerimeter=0;exitX=0.894;exitY=0.529;exitDx=0;exitDy=0;exitPerimeter=0;curved=1;" parent="1" source="92" target="pjcTLgV8slz2mf12lj3D-128" edge="1">
          <mxGeometry width="50" height="50" relative="1" as="geometry">
            <mxPoint x="460" y="170" as="sourcePoint" />
            <mxPoint x="560" y="420" as="targetPoint" />
          </mxGeometry>
        </mxCell>
        <UserObject label="&lt;div style=&quot;font-size: 1px&quot;&gt;&lt;font style=&quot;font-size: 16.93px; font-family: SimSun; color: rgb(0, 0, 0); direction: ltr; letter-spacing: 0px; line-height: 120%; opacity: 1;&quot;&gt;BT-641B&lt;/font&gt;&lt;/div&gt;" tags="背景" id="90">
          <mxCell style="verticalAlign=middle;align=center;overflow=width;vsdxID=264;fillColor=none;gradientColor=none;shape=stencil(nZBLDoAgDERP0z3SIyjew0SURgSD+Lu9kMZoXLhwN9O+tukAlrNpJg1SzDH4QW/URgNYgZTkjA4UkwJUgGXng+6DX1zLfmoymdXo17xh5zmRJ6Q42BWCfc2oJfdAr+Yv+AP9Cb7OJ3H/2JG1HNGz/84klThPVCc=);strokeColor=none;spacingTop=-1;spacingBottom=-1;spacingLeft=-1;spacingRight=-1;points=[];labelBackgroundColor=none;rounded=0;html=1;whiteSpace=wrap;" parent="1" vertex="1">
            <mxGeometry x="307" y="90" width="100" height="31" as="geometry" />
          </mxCell>
        </UserObject>
        <UserObject label="" tags="背景" id="92">
          <mxCell style="vsdxID=270;fillColor=none;gradientColor=none;strokeColor=none;spacingTop=-3;spacingBottom=-3;spacingLeft=-3;spacingRight=-3;points=[];labelBackgroundColor=none;rounded=0;html=1;whiteSpace=wrap;" parent="1" vertex="1">
            <mxGeometry x="404" y="154" width="21" height="11" as="geometry" />
          </mxCell>
        </UserObject>
        <mxCell id="93" style="vsdxID=271;fillColor=#000000;gradientColor=#6cb9ff;shape=stencil(zZffcqsgEMafxsvsAAsC1/3zHk5rEqc2Zog9Td7+kCOJLh41bVrHO4Vl89vvWzAk+HDYZvs8EexQu+ot/yxe622Cj4kQxW6bu6L2Twk+Jfiwrly+cdXH7rV532fnyPPTe/XnnOHYrDMWhDyvEuzUjLB/b89NcFnsOsGcgR6OfflwTWbeTEpQGKJ5N5wdBXk9iWt2m4YIDEOAKgSFESFA2mFCA9YSQqPAyDFKC1ZTSiuBpZSUIxgR07KI1YCwFPYS839UDoqyRuExqUmvXBfUFkJc7bScgnbLCVzWKx3p6nXSOAxrTQzrjUA9hntla2Fbfy9sCmSEG6na7U+cbNCJbqatz30wbWdE4Ly7IHMvftaFBb6VQrw79UsKKTgwPpCUHVfZsTisXFVndVHtSMFl5jb5yv/gal1mm5C+mTp85vm+N/xtxLG6v4zIbkCMDpFp2alPKIEjWaD1ZdN+36deUuW3l1qST2N1z+DTDbJHPqXAVRIZK9V9IkgNxg4kXYpPI3XP4dO07NQnxYFTSbWB9E6f+kn9ftLy90T4CcS27l9pJerTDbJHPiGwqPX9p1zcJ0IqweBA0oXsp7G65/BpWnbqU+r/+KVkwQ98n/pJF/d9Gqt7hnPvBtmpT1oB9VUqwDu3Uy+n8Gfvkg69kaJn2EvTkvuH9mq6Lsqyudl25+OrrB9qrsH49Bc=);strokeColor=none;spacingTop=-3;spacingBottom=-3;spacingLeft=-3;spacingRight=-3;points=[];labelBackgroundColor=none;rounded=0;html=1;whiteSpace=wrap;" parent="92" vertex="1">
          <mxGeometry width="21" height="11" as="geometry" />
        </mxCell>
        <UserObject label="&lt;div style=&quot;font-size: 1px&quot;&gt;&lt;font style=&quot;font-size:14.11px;font-family:SimSun;color:#000000;direction:ltr;letter-spacing:0px;line-height:120%;opacity:1&quot;&gt;串口&lt;br/&gt;&lt;/font&gt;&lt;/div&gt;" tags="背景" id="94">
          <mxCell style="verticalAlign=middle;align=center;overflow=width;vsdxID=272;fillColor=none;gradientColor=none;shape=stencil(nZBLDoAgDERP0z3SIyjew0SURgSD+Lu9kMZoXLhwN9O+tukAlrNpJg1SzDH4QW/URgNYgZTkjA4UkwJUgGXng+6DX1zLfmoymdXo17xh5zmRJ6Q42BWCfc2oJfdAr+Yv+AP9Cb7OJ3H/2JG1HNGz/84klThPVCc=);strokeColor=none;spacingTop=-1;spacingBottom=-1;spacingLeft=-1;spacingRight=-1;points=[];labelBackgroundColor=none;rounded=0;html=1;whiteSpace=wrap;" parent="1" vertex="1">
            <mxGeometry x="394" y="132" width="44" height="19" as="geometry" />
          </mxCell>
        </UserObject>
        <mxCell id="96" style="vsdxID=274;fillColor=#90caf9;gradientColor=none;shape=stencil(UzV2Ls5ILEhVNTIoLinKz04tz0wpyVA1dlE1MsrMy0gtyiwBslSNXVWNndPyi1LTi/JL81Ig/IJEkEoQKze/DGRCBUSfoYEBSI+RQSWEb2GpZ2IOFnGDKM/JzENSjqoYphmrUnSTSVCK4QggA+GBtMycHIj/keXRPQwUggSWsSsA);strokeColor=none;strokeWidth=0;shadow=1;spacingTop=-3;spacingBottom=-3;spacingLeft=-3;spacingRight=-3;points=[];labelBackgroundColor=none;rounded=0;html=1;whiteSpace=wrap;" parent="1" vertex="1">
          <mxGeometry x="318" y="130" width="34" height="68" as="geometry" />
        </mxCell>
        <mxCell id="97" style="vsdxID=275;fillColor=#2196f3;gradientColor=none;shape=stencil(UzV2Ls5ILEhVNTIoLinKz04tz0wpyVA1dlE1MsrMy0gtyiwBslSNXVWNndPyi1LTi/JL81Ig/IJEkEoQKze/DGRCBUSfAUiHkUElhGdhqWdiDhZxgyjOycxDUmxogKocxseqGFUp0QoxnABkIByflpmTA/E7sjy6Z4FCkIAydgUA);strokeColor=none;strokeWidth=0;shadow=1;spacingTop=-3;spacingBottom=-3;spacingLeft=-3;spacingRight=-3;points=[];labelBackgroundColor=none;rounded=0;html=1;whiteSpace=wrap;" parent="1" vertex="1">
          <mxGeometry x="352" y="130" width="34" height="68" as="geometry" />
        </mxCell>
        <mxCell id="64" value="&lt;div style=&quot;font-size: 1px&quot;&gt;&lt;/div&gt;" style="verticalAlign=middle;align=center;overflow=width;vsdxID=198;fillColor=none;gradientColor=none;shape=stencil(nZBLDoAgDERP0z3SIyjew0SURgSD+Lu9kMZoXLhwN9O+tukAlrNpJg1SzDH4QW/URgNYgZTkjA4UkwJUgGXng+6DX1zLfmoymdXo17xh5zmRJ6Q42BWCfc2oJfdAr+Yv+AP9Cb7OJ3H/2JG1HNGz/84klThPVCc=);dashed=1;strokeColor=#000000;spacingTop=-1;spacingBottom=-1;spacingLeft=-1;spacingRight=-1;points=[[1,0.5,0],[0.5,0.5,0],[0.5,0,0]];labelBackgroundColor=none;rounded=0;html=1;whiteSpace=wrap;" parent="1" vertex="1">
          <mxGeometry x="296" y="97.5" width="146" height="124" as="geometry" />
        </mxCell>
        <mxCell id="pjcTLgV8slz2mf12lj3D-156" value="" style="endArrow=classic;startArrow=classic;html=1;rounded=0;edgeStyle=orthogonalEdgeStyle;entryX=-0.041;entryY=0.546;entryDx=0;entryDy=0;entryPerimeter=0;exitX=0.916;exitY=0.551;exitDx=0;exitDy=0;exitPerimeter=0;curved=1;" parent="1" source="pjcTLgV8slz2mf12lj3D-154" target="pjcTLgV8slz2mf12lj3D-126" edge="1">
          <mxGeometry width="50" height="50" relative="1" as="geometry">
            <mxPoint x="450" y="330" as="sourcePoint" />
            <mxPoint x="556" y="301" as="targetPoint" />
          </mxGeometry>
        </mxCell>
        <mxCell id="pjcTLgV8slz2mf12lj3D-136" style="vsdxID=186;fillColor=none;gradientColor=none;strokeColor=none;points=[[0.5,0.5,0]];labelBackgroundColor=none;rounded=0;html=1;whiteSpace=wrap;" parent="1" vertex="1">
          <mxGeometry x="311" y="283" width="132" height="91" as="geometry" />
        </mxCell>
        <mxCell id="pjcTLgV8slz2mf12lj3D-137" style="vsdxID=187;fillColor=#000000;gradientColor=none;shape=stencil(lVfbUtwwDP2afdU4Unx7pu1/MGUpO6Uss0ALf195EluysgnhLeuV5JOjo0sOdPPycPt8PKB7eb2cfx//ne5eHw707YB4eno4Xk6v/HSg7we6uT9fjr8u57enu+n3822xLE9/zn9LhPfJL3gIQ/FC9zGdeAduOvkxOfx8u0wew9JlPvIB0E9H7zhbEYxhtqpHA6RxtqL5iC9LsxVJeH394+lJ40VIPd6Qa9Q1vBEGg5fvcMHg5TC+x+sjZG/wKivay5fymY9GXN6vUM5HNEK2fCHE3N9PDoYtwly76qOFHbcBc+oMYEow2AQrGcxHI0G0hCmrNcJ6RUam62uCVB5DU1pjbsYWGUjq4UaEgIv8ooHL0WNa5zcOTSQz3jSCw0/wEvWAGV0ygEuY0RQQQTCC0FZ7Bal9an4DUDSEKZTzEY5Vau3+8vrU3z94yBuEFYo7vtABbvPFqYs9XoxAaYHX5JdF66KBK0b71Jiwgqtwrb2RQ4Yxd/ZjbY1r2WAPowZm0LbT7CGadkpDo6W+nrbaqwbtU8sntdQ3NSqUIlBb7fz2pjuW6H6drkIvdXQNzm2iJXC5R5ti1VtDW4NIqTML1GMVm71MiUdVYYZsqqbgMzIcsPYDqVqlKrouq16G3LOpl9WnaLVLHTuqP1cRBfBm7OleX2dMliZHNvzVxFKURipzarMQCMHgLQMQDd4WRaYO82vxKqu92dU+da1hZZkxzSBT7u8vy0Qy90cw6ZUl4DpdWdqoHZxreFXmZOwli1epoK41vKyZLq6t9vXF0rS/pkflIUuFM+XD3XIxdKKMJkmv6eIl+EZXRrmpthlfS3cd7mLojIslqISxbTks8Gqr3c1G+cheFsySoFHKopNMOZTXN/eXHYA29Ohkz5Q1KG8SxqkzCS4LFi0AY49X72q0MNqnxiFCNPntx4iRg4N+ZZMZuNr6wZtslPFnio1Hvd3YeJKal1NGe7WgXGrpqNmPAtFIoewRS2q94bZFv8pVobbfxzfnc2gduy0zavyhjiAVrsYo9RZ7GTKDWY97bMDM14reG2ipI7oqJH6QT+n70+Pj9CWu/7ef3nw0fbbT9/8=);strokeColor=#939393;points=[[0.5,0.5,0]];labelBackgroundColor=none;rounded=0;html=1;whiteSpace=wrap;" parent="pjcTLgV8slz2mf12lj3D-136" vertex="1">
          <mxGeometry x="12" width="50" height="37" as="geometry" />
        </mxCell>
        <mxCell id="pjcTLgV8slz2mf12lj3D-138" style="vsdxID=188;fillColor=#000000;gradientColor=none;shape=stencil(pZPdkoIwDIWfpreZ0JRgr119D0dROiI4Bf/eXrBVCe4yzuxdenrSL2lTRfOmWB1zpbFpfb3PL27TFop+lNauKnLv2i5StFA039Y+3/n6VG3C+rjqnX10qM/9CdeQRwxEfZbGW1DM7LFcBnfpqkl3gvi3nQk4+49d1rI++VB6EnZnBthEf5RMCmiDdNUSibcoUAqcRg+NPVHQBgxPsd8ZLwEsS3KWASeSjZJrLFgryThF1RrISi5K5qjXYVUkHd92OupzeHtPSArEkjt8B/qcHfrtebvgPaVbV5bDnfE8d1L4C7S4Aw==);strokeColor=#939393;points=[[0.5,0.5,0]];labelBackgroundColor=none;rounded=0;html=1;whiteSpace=wrap;" parent="pjcTLgV8slz2mf12lj3D-136" vertex="1">
          <mxGeometry x="33" y="14" width="8" height="16" as="geometry" />
        </mxCell>
        <mxCell id="pjcTLgV8slz2mf12lj3D-139" style="vsdxID=189;fillColor=#000000;gradientColor=none;shape=stencil(UzV2Ls5ILEhVNTIoLinKz04tz0wpyVA1dlE1MsrMy0gtyiwBslSNXVWNndPyi1LTi/JL81Ig/IJEkEoQKze/DGRCBUSfoYEBSI+RQSUq3w2iOCczD0kxCUqNjfSMTFGU41FsZq5nTrRiAi4GMhB+TcvMyYEEFbI8etgAhSDhauwKAA==);strokeColor=#939393;points=[[0.5,0.5,0]];labelBackgroundColor=none;rounded=0;html=1;whiteSpace=wrap;" parent="pjcTLgV8slz2mf12lj3D-136" vertex="1">
          <mxGeometry x="26" y="31" width="22" height="43" as="geometry" />
        </mxCell>
        <UserObject label="&lt;div style=&quot;font-size: 1px&quot;&gt;&lt;font style=&quot;font-size: 14.11px; font-family: SimSun; color: rgb(0, 0, 0); direction: ltr; letter-spacing: 0px; line-height: 120%; opacity: 1;&quot;&gt;串口&lt;br&gt;&lt;/font&gt;&lt;/div&gt;" tags="背景" id="pjcTLgV8slz2mf12lj3D-152">
          <mxCell style="verticalAlign=middle;align=center;overflow=width;vsdxID=159;fillColor=none;gradientColor=none;shape=stencil(nZBLDoAgDERP0z3SIyjew0SURgSD+Lu9kMZoXLhwN9O+tukAlrNpJg1SzDH4QW/URgNYgZTkjA4UkwJUgGXng+6DX1zLfmoymdXo17xh5zmRJ6Q42BWCfc2oJfdAr+Yv+AP9Cb7OJ3H/2JG1HNGz/84klThPVCc=);strokeColor=none;spacingTop=-1;spacingBottom=-1;spacingLeft=-1;spacingRight=-1;points=[];labelBackgroundColor=none;rounded=0;html=1;whiteSpace=wrap;" parent="pjcTLgV8slz2mf12lj3D-136" vertex="1">
            <mxGeometry x="88" y="14" width="44" height="19" as="geometry" />
          </mxCell>
        </UserObject>
        <UserObject label="" tags="背景" id="pjcTLgV8slz2mf12lj3D-153">
          <mxCell style="vsdxID=157;fillColor=none;gradientColor=none;strokeColor=none;spacingTop=-3;spacingBottom=-3;spacingLeft=-3;spacingRight=-3;points=[];labelBackgroundColor=none;rounded=0;html=1;whiteSpace=wrap;" parent="pjcTLgV8slz2mf12lj3D-136" vertex="1">
            <mxGeometry x="96" y="33" width="21" height="11" as="geometry" />
          </mxCell>
        </UserObject>
        <mxCell id="pjcTLgV8slz2mf12lj3D-154" style="vsdxID=158;fillColor=#000000;gradientColor=#6cb9ff;shape=stencil(zZffcqsgEMafxsvsAAsC1/3zHk5rEqc2Zog9Td7+kCOJLh41bVrHO4Vl89vvWzAk+HDYZvs8EexQu+ot/yxe622Cj4kQxW6bu6L2Twk+Jfiwrly+cdXH7rV532fnyPPTe/XnnOHYrDMWhDyvEuzUjLB/b89NcFnsOsGcgR6OfflwTWbeTEpQGKJ5N5wdBXk9iWt2m4YIDEOAKgSFESFA2mFCA9YSQqPAyDFKC1ZTSiuBpZSUIxgR07KI1YCwFPYS839UDoqyRuExqUmvXBfUFkJc7bScgnbLCVzWKx3p6nXSOAxrTQzrjUA9hntla2Fbfy9sCmSEG6na7U+cbNCJbqatz30wbWdE4Ly7IHMvftaFBb6VQrw79UsKKTgwPpCUHVfZsTisXFVndVHtSMFl5jb5yv/gal1mm5C+mTp85vm+N/xtxLG6v4zIbkCMDpFp2alPKIEjWaD1ZdN+36deUuW3l1qST2N1z+DTDbJHPqXAVRIZK9V9IkgNxg4kXYpPI3XP4dO07NQnxYFTSbWB9E6f+kn9ftLy90T4CcS27l9pJerTDbJHPiGwqPX9p1zcJ0IqweBA0oXsp7G65/BpWnbqU+r/+KVkwQ98n/pJF/d9Gqt7hnPvBtmpT1oB9VUqwDu3Uy+n8Gfvkg69kaJn2EvTkvuH9mq6Lsqyudl25+OrrB9qrsH49Bc=);strokeColor=none;spacingTop=-3;spacingBottom=-3;spacingLeft=-3;spacingRight=-3;points=[];labelBackgroundColor=none;rounded=0;html=1;whiteSpace=wrap;" parent="pjcTLgV8slz2mf12lj3D-153" vertex="1">
          <mxGeometry x="3" y="2" width="21" height="11" as="geometry" />
        </mxCell>
        <UserObject label="&lt;div style=&quot;font-size: 1px&quot;&gt;&lt;/div&gt;" tags="流程图" id="pjcTLgV8slz2mf12lj3D-140">
          <mxCell style="verticalAlign=middle;align=center;overflow=width;vsdxID=265;fillColor=none;gradientColor=none;shape=stencil(nZBLDoAgDERP0z3SIyjew0SURgSD+Lu9kMZoXLhwN9O+tukAlrNpJg1SzDH4QW/URgNYgZTkjA4UkwJUgGXng+6DX1zLfmoymdXo17xh5zmRJ6Q42BWCfc2oJfdAr+Yv+AP9Cb7OJ3H/2JG1HNGz/84klThPVCc=);dashed=1;strokeColor=#000000;spacingTop=-1;spacingBottom=-1;spacingLeft=-1;spacingRight=-1;points=[[1,0.5,0],[0.5,0.5,0],[0.5,0,0]];labelBackgroundColor=none;rounded=0;html=1;whiteSpace=wrap;" parent="pjcTLgV8slz2mf12lj3D-136" vertex="1">
            <mxGeometry x="-14" y="-33" width="146" height="124" as="geometry" />
          </mxCell>
        </UserObject>
        <mxCell id="pjcTLgV8slz2mf12lj3D-141" value="&lt;div style=&quot;font-size: 1px&quot;&gt;&lt;font style=&quot;font-size: 16.93px; font-family: SimSun; color: rgb(0, 0, 0); direction: ltr; letter-spacing: 0px; line-height: 120%; opacity: 1;&quot;&gt;数传电台&lt;br&gt;&lt;/font&gt;&lt;/div&gt;" style="verticalAlign=middle;align=center;overflow=width;vsdxID=190;fillColor=none;gradientColor=none;shape=stencil(nZBLDoAgDERP0z3SIyjew0SURgSD+Lu9kMZoXLhwN9O+tukAlrNpJg1SzDH4QW/URgNYgZTkjA4UkwJUgGXng+6DX1zLfmoymdXo17xh5zmRJ6Q42BWCfc2oJfdAr+Yv+AP9Cb7OJ3H/2JG1HNGz/84klThPVCc=);strokeColor=none;spacingTop=-1;spacingBottom=-1;spacingLeft=-1;spacingRight=-1;points=[];labelBackgroundColor=none;rounded=0;html=1;whiteSpace=wrap;" parent="1" vertex="1">
          <mxGeometry x="300" y="250" width="126" height="27" as="geometry" />
        </mxCell>
        <UserObject label="" tags="背景" id="pjcTLgV8slz2mf12lj3D-126">
          <mxCell style="vsdxID=157;fillColor=none;gradientColor=none;strokeColor=none;spacingTop=-3;spacingBottom=-3;spacingLeft=-3;spacingRight=-3;points=[];labelBackgroundColor=none;rounded=0;html=1;whiteSpace=wrap;" parent="1" vertex="1">
            <mxGeometry x="551.5" y="350" width="21" height="11" as="geometry" />
          </mxCell>
        </UserObject>
        <mxCell id="pjcTLgV8slz2mf12lj3D-127" style="vsdxID=158;fillColor=#000000;gradientColor=#6cb9ff;shape=stencil(zZffcqsgEMafxsvsAAsC1/3zHk5rEqc2Zog9Td7+kCOJLh41bVrHO4Vl89vvWzAk+HDYZvs8EexQu+ot/yxe622Cj4kQxW6bu6L2Twk+Jfiwrly+cdXH7rV532fnyPPTe/XnnOHYrDMWhDyvEuzUjLB/b89NcFnsOsGcgR6OfflwTWbeTEpQGKJ5N5wdBXk9iWt2m4YIDEOAKgSFESFA2mFCA9YSQqPAyDFKC1ZTSiuBpZSUIxgR07KI1YCwFPYS839UDoqyRuExqUmvXBfUFkJc7bScgnbLCVzWKx3p6nXSOAxrTQzrjUA9hntla2Fbfy9sCmSEG6na7U+cbNCJbqatz30wbWdE4Ly7IHMvftaFBb6VQrw79UsKKTgwPpCUHVfZsTisXFVndVHtSMFl5jb5yv/gal1mm5C+mTp85vm+N/xtxLG6v4zIbkCMDpFp2alPKIEjWaD1ZdN+36deUuW3l1qST2N1z+DTDbJHPqXAVRIZK9V9IkgNxg4kXYpPI3XP4dO07NQnxYFTSbWB9E6f+kn9ftLy90T4CcS27l9pJerTDbJHPiGwqPX9p1zcJ0IqweBA0oXsp7G65/BpWnbqU+r/+KVkwQ98n/pJF/d9Gqt7hnPvBtmpT1oB9VUqwDu3Uy+n8Gfvkg69kaJn2EvTkvuH9mq6Lsqyudl25+OrrB9qrsH49Bc=);strokeColor=none;spacingTop=-3;spacingBottom=-3;spacingLeft=-3;spacingRight=-3;points=[];labelBackgroundColor=none;rounded=0;html=1;whiteSpace=wrap;" parent="pjcTLgV8slz2mf12lj3D-126" vertex="1">
          <mxGeometry width="21" height="11" as="geometry" />
        </mxCell>
        <UserObject label="&lt;div style=&quot;font-size: 1px&quot;&gt;&lt;font style=&quot;font-size: 14.11px; font-family: SimSun; color: rgb(0, 0, 0); direction: ltr; letter-spacing: 0px; line-height: 120%; opacity: 1;&quot;&gt;串口2&lt;/font&gt;&lt;/div&gt;" tags="背景" id="pjcTLgV8slz2mf12lj3D-130">
          <mxCell style="verticalAlign=middle;align=center;overflow=width;vsdxID=159;fillColor=none;gradientColor=none;shape=stencil(nZBLDoAgDERP0z3SIyjew0SURgSD+Lu9kMZoXLhwN9O+tukAlrNpJg1SzDH4QW/URgNYgZTkjA4UkwJUgGXng+6DX1zLfmoymdXo17xh5zmRJ6Q42BWCfc2oJfdAr+Yv+AP9Cb7OJ3H/2JG1HNGz/84klThPVCc=);strokeColor=none;spacingTop=-1;spacingBottom=-1;spacingLeft=-1;spacingRight=-1;points=[];labelBackgroundColor=none;rounded=0;html=1;whiteSpace=wrap;" parent="1" vertex="1">
            <mxGeometry x="540" y="330" width="44" height="19" as="geometry" />
          </mxCell>
        </UserObject>
        <mxCell id="pjcTLgV8slz2mf12lj3D-158" value="" style="endArrow=classic;startArrow=classic;html=1;rounded=0;edgeStyle=orthogonalEdgeStyle;entryX=-0.046;entryY=0.667;entryDx=0;entryDy=0;entryPerimeter=0;exitX=1.067;exitY=0.456;exitDx=0;exitDy=0;exitPerimeter=0;curved=1;" parent="1" source="pjcTLgV8slz2mf12lj3D-151" target="pjcTLgV8slz2mf12lj3D-123" edge="1">
          <mxGeometry width="50" height="50" relative="1" as="geometry">
            <mxPoint x="456.36" y="439.94" as="sourcePoint" />
            <mxPoint x="578.36" y="471.94" as="targetPoint" />
          </mxGeometry>
        </mxCell>
        <UserObject label="" tags="背景" id="78">
          <mxCell style="vsdxID=247;fillColor=none;gradientColor=none;strokeColor=none;shadow=1;spacingTop=-3;spacingBottom=-3;spacingLeft=-3;spacingRight=-3;points=[];labelBackgroundColor=none;rounded=0;html=1;whiteSpace=wrap;" parent="1" vertex="1">
            <mxGeometry x="784" y="474" width="82" height="56.5" as="geometry" />
          </mxCell>
        </UserObject>
        <mxCell id="79" style="vsdxID=248;fillColor=#000000;gradientColor=none;shape=stencil(vVTdboMgFH4aLj3hRxhcd917kBaVzIlBurZvPxguE5fYmCW9O3w/HL+jHsQOU6dHgyiegnfv5mrPoUPsFVFqh854G2KF2BGxQ+O8ab27DOd8HnVSpurDfaYbbtknMUiVXBTfZ0QAld/IWzb0digNhBQGwkBsGIhaG2oJ9XaH3Y/0yFCGFgpwXWYAwpd67U+R9H8j+B8DByYyNIuUgnQsB8P5rKn0zU6Vd0EH64bM48z12remih2rptdtQU1XY8YFTDbGjPF6BKT+Z6Q4J1ZGUvHVqWdFegHOiu4Cg1C7M/EikwTMi0sZByWeFenxl7dXH4vff7uxfZ9Xw5Jf74II5T3Cjl8=);strokeColor=none;strokeWidth=0;shadow=1;spacingTop=-3;spacingBottom=-3;spacingLeft=-3;spacingRight=-3;points=[];labelBackgroundColor=none;rounded=0;html=1;whiteSpace=wrap;" parent="78" vertex="1">
          <mxGeometry x="48" y="6" width="27" height="31" as="geometry" />
        </mxCell>
        <mxCell id="80" style="vsdxID=249;fillColor=#000000;gradientColor=none;shape=stencil(xVXbcoMgEP0aHmW4SIPPafofTIPKlIqDtEn/vlhoE6PEmkztG+4eWc6es7OAbrtatBIQ1DlrXuRB7V0N6CMgRDW1tMr5E6A7QLelsbKy5q3Zh+9W9Mj+9Gre+xuO4T+cQ477vwj6iBEE2VfgKeCFffZJG/E5LPIAtxHPIHkIkQgpIN8Mb2RwwyIkE0fVZdY44ZRpQh6FnBa2kpkvl5VaVINUd5CyHYXjA7Vq5JXqPIdkKSE2IDTuES/gaoQ4g7iYrn6zQghimmjSGhKNyp8ccqtG4y79+HgFRvNTtBQ/N6WLDIPSrT272U6M6/fj0B8PNL7Sq4viM/P8K0JTbkGrEZoQ/16FUi1agU7KGnfYLeH2f9FmoIw/nBZpqbQOe/g8f7l4fSgsbbr7BA==);strokeColor=none;strokeWidth=0;shadow=1;spacingTop=-3;spacingBottom=-3;spacingLeft=-3;spacingRight=-3;points=[];labelBackgroundColor=none;rounded=0;html=1;whiteSpace=wrap;" parent="78" vertex="1">
          <mxGeometry width="53" height="45" as="geometry" />
        </mxCell>
        <UserObject label="&lt;div style=&quot;font-size: 1px&quot;&gt;&lt;/div&gt;" tags="流程图" id="pjcTLgV8slz2mf12lj3D-131">
          <mxCell style="verticalAlign=middle;align=center;overflow=width;vsdxID=156;fillColor=none;gradientColor=none;shape=stencil(nZBLDoAgDERP0z3SIyjew0SURgSD+Lu9kMZoXLhwN9O+tukAlrNpJg1SzDH4QW/URgNYgZTkjA4UkwJUgGXng+6DX1zLfmoymdXo17xh5zmRJ6Q42BWCfc2oJfdAr+Yv+AP9Cb7OJ3H/2JG1HNGz/84klThPVCc=);dashed=1;strokeColor=#000000;spacingTop=-1;spacingBottom=-1;spacingLeft=-1;spacingRight=-1;points=[[1,0.5,0],[0.5,0.5,0],[0.5,0,0]];labelBackgroundColor=none;rounded=0;html=1;whiteSpace=wrap;" parent="78" vertex="1">
            <mxGeometry x="-64" y="-44" width="146" height="100.5" as="geometry" />
          </mxCell>
        </UserObject>
        <UserObject label="&lt;div style=&quot;font-size: 1px&quot;&gt;&lt;font style=&quot;font-size: 16.93px; font-family: SimSun; color: rgb(0, 0, 0); direction: ltr; letter-spacing: 0px; line-height: 120%; opacity: 1;&quot;&gt;摄像头&lt;br&gt;&lt;/font&gt;&lt;/div&gt;" tags="背景" id="81">
          <mxCell style="verticalAlign=middle;align=center;overflow=width;vsdxID=250;fillColor=none;gradientColor=none;shape=stencil(nZBLDoAgDERP0z3SIyjew0SURgSD+Lu9kMZoXLhwN9O+tukAlrNpJg1SzDH4QW/URgNYgZTkjA4UkwJUgGXng+6DX1zLfmoymdXo17xh5zmRJ6Q42BWCfc2oJfdAr+Yv+AP9Cb7OJ3H/2JG1HNGz/84klThPVCc=);strokeColor=none;spacingTop=-1;spacingBottom=-1;spacingLeft=-1;spacingRight=-1;points=[];labelBackgroundColor=none;rounded=0;html=1;whiteSpace=wrap;" parent="1" vertex="1">
            <mxGeometry x="761.5" y="440" width="100" height="23" as="geometry" />
          </mxCell>
        </UserObject>
        <UserObject label="" tags="背景" id="83">
          <mxCell style="vsdxID=252;fillColor=none;gradientColor=none;strokeColor=none;spacingTop=-1;spacingBottom=-1;spacingLeft=-1;spacingRight=-1;points=[];labelBackgroundColor=none;rounded=0;html=1;whiteSpace=wrap;" parent="1" vertex="1">
            <mxGeometry x="748" y="491" width="21" height="23" as="geometry" />
          </mxCell>
        </UserObject>
        <mxCell id="84" style="vsdxID=253;fillColor=#2c5ccb;gradientColor=none;shape=stencil(lVbRcqMwDPwaXjW2ZGzz3Ov9R+eaXpjLJR2a3qV/X1NDLMmB0DdsdpldayXT0MPb/ul116B5Ow+nP7v//fN539CPBrE/7ndDf05PDT029PByGna/h9P78TmvX59G5Pj09/Rv/MIl86IHciMLzUfescZ8rX9m+KE/Mrgl8O0a/Nf7kD9v82sPFie8lQRzwbwxLT+mZUdgJsqFJGJaRgfOLWs0Qp/roItrCo2U5yw4qY9ZmHYoCVAS+cGQRt0+Sg8+CKnfJtgWWr/mjVOuBZmO4+oPEUInDRppjgwQSnMrGfEd+Ch0riYkBEArNaqARAIiKZC5oBpEC8cjdXLGpgKMvdKuE7S5FOYYpTkeHlQtMdtjISQNoYVcq7AY2QZVz1RRMaoReB+W1oxBKi3dTOWQnJS6OlHuDiA5r+oB5Nwc3yVnFqyT3gqneAMrnblw7fvZW8FsK0LBbyxCIUwbMQCprDA3c3+khiOp9MY4KqiNdagIWm2MEL3Sy6TMB2tATRdmiirMthnPCBvHPGPYusBYO8I6KssRr0Io5YYIQY7Eu6kNHlAd7o3UBgeoRqNDcEEK5qh5pKdC2RXBjLHxruGUufPSzaL0IliVBpsuF6V3vEGC1FtQN/XyG2qBoPVigKi6jUuZL8cWgh55xRXVoG13D2csFKTSyyi2LvWslyDoQNQJRguoLvQ7Cd4wd79NSA/lt/SlPxzyXy1/r39j01b+BabHTw==);strokeColor=none;strokeWidth=0;shadow=1;spacingTop=-3;spacingBottom=-3;spacingLeft=-3;spacingRight=-3;points=[];labelBackgroundColor=none;rounded=0;html=1;whiteSpace=wrap;" parent="83" vertex="1">
          <mxGeometry width="21" height="23" as="geometry" />
        </mxCell>
        <mxCell id="85" style="vsdxID=254;fillColor=#2c5ccb;gradientColor=none;shape=stencil(jZbdcoIwEIWfhtud/EAI17Z9D6diZWrFQW317QsNxZOE/NwlcA7ZPXwDW8jN5bA9t4Vgl+vQf7Y/3e56KORLIUR3OrRDdx1XhXwt5GbfD+3H0N9OO7M/byfltPrqv6cn3I2vpnLyCPYwe87Y3/7NiN9vg1Fzc1uS5LOe2wZ2F+bCvH3M24aTbmaFtBXzVi+K+dBjd4IKmV2fJs5jFTK7vEW+1Act2BX/l/eMxKo3cB7nVGr7TCcQXlLd2CdCVdIXyUCrdi7oCATp1QoW7r8e4Xck3Jccysjhxi41AZlNpKxIx9QekpzqFJNj4GWRwhJEeWSCIRNOcIT5hH7WAYWEcgiVDek4oaUkkQIUNHl8giETT3CE6cRuQnT6AUXxTBFn86lKp68En4oRd9ry+KwUOT2t8AmiPD7BkMknOIJ8Yj/rfEJCOXwqTcL5Kjnx1JxUik/Q5PEJhkw+wRHmE7sJ8ekHFOUzRZzNZyOcvhJ8ak1Vik9dkXC+SSuAoiqPUHRkIoqWIKPY0zqjkFIOo40iFWd0ySzyj2fO5JP6wzN79kn/35kz/azwiZ2E+PTDifKZIm5cPMfPfXc8mukV77vj6njJjLry9Rc=);strokeColor=none;strokeWidth=0;shadow=1;spacingTop=-3;spacingBottom=-3;spacingLeft=-3;spacingRight=-3;points=[];labelBackgroundColor=none;rounded=0;html=1;whiteSpace=wrap;" parent="83" vertex="1">
          <mxGeometry x="4" y="12" width="13" height="6" as="geometry" />
        </mxCell>
        <UserObject label="&lt;div style=&quot;font-size: 1px&quot;&gt;&lt;font style=&quot;font-size:14.11px;font-family:SimSun;color:#000000;direction:ltr;letter-spacing:0px;line-height:120%;opacity:1&quot;&gt;以太网口&lt;br/&gt;&lt;/font&gt;&lt;/div&gt;" tags="背景" id="86">
          <mxCell style="verticalAlign=middle;align=center;overflow=width;vsdxID=255;fillColor=none;gradientColor=none;shape=stencil(nZBLDoAgDERP0z3SIyjew0SURgSD+Lu9kMZoXLhwN9O+tukAlrNpJg1SzDH4QW/URgNYgZTkjA4UkwJUgGXng+6DX1zLfmoymdXo17xh5zmRJ6Q42BWCfc2oJfdAr+Yv+AP9Cb7OJ3H/2JG1HNGz/84klThPVCc=);strokeColor=none;spacingTop=-1;spacingBottom=-1;spacingLeft=-1;spacingRight=-1;points=[];labelBackgroundColor=none;rounded=0;html=1;whiteSpace=wrap;" parent="1" vertex="1">
            <mxGeometry x="720" y="472" width="65" height="19" as="geometry" />
          </mxCell>
        </UserObject>
        <mxCell id="pjcTLgV8slz2mf12lj3D-160" value="" style="endArrow=classic;startArrow=classic;html=1;rounded=0;edgeStyle=elbowEdgeStyle;entryX=-0.079;entryY=0.627;entryDx=0;entryDy=0;entryPerimeter=0;" parent="1" target="60" edge="1">
          <mxGeometry width="50" height="50" relative="1" as="geometry">
            <mxPoint x="750" y="508" as="sourcePoint" />
            <mxPoint x="1070" y="320" as="targetPoint" />
            <Array as="points">
              <mxPoint x="700" y="350" />
            </Array>
          </mxGeometry>
        </mxCell>
        <UserObject label="&lt;div style=&quot;font-size: 1px&quot;&gt;&lt;/div&gt;" tags="流程图" id="91">
          <mxCell style="verticalAlign=middle;align=center;overflow=width;vsdxID=265;fillColor=none;gradientColor=none;shape=stencil(nZBLDoAgDERP0z3SIyjew0SURgSD+Lu9kMZoXLhwN9O+tukAlrNpJg1SzDH4QW/URgNYgZTkjA4UkwJUgGXng+6DX1zLfmoymdXo17xh5zmRJ6Q42BWCfc2oJfdAr+Yv+AP9Cb7OJ3H/2JG1HNGz/84klThPVCc=);dashed=1;strokeColor=#000000;spacingTop=-1;spacingBottom=-1;spacingLeft=-1;spacingRight=-1;points=[[1,0.5,0],[0.5,0.5,0],[0.5,0,0]];labelBackgroundColor=none;rounded=0;html=1;whiteSpace=wrap;" parent="1" vertex="1">
            <mxGeometry x="710" y="94" width="146" height="124" as="geometry" />
          </mxCell>
        </UserObject>
        <mxCell id="56" value="&lt;div style=&quot;font-size: 1px&quot;&gt;&lt;font style=&quot;font-size: 16.93px; font-family: SimSun; color: rgb(0, 0, 0); direction: ltr; letter-spacing: 0px; line-height: 120%; opacity: 1;&quot;&gt;图传电台&lt;br&gt;&lt;/font&gt;&lt;/div&gt;" style="verticalAlign=middle;align=center;overflow=width;vsdxID=190;fillColor=none;gradientColor=none;shape=stencil(nZBLDoAgDERP0z3SIyjew0SURgSD+Lu9kMZoXLhwN9O+tukAlrNpJg1SzDH4QW/URgNYgZTkjA4UkwJUgGXng+6DX1zLfmoymdXo17xh5zmRJ6Q42BWCfc2oJfdAr+Yv+AP9Cb7OJ3H/2JG1HNGz/84klThPVCc=);strokeColor=none;spacingTop=-1;spacingBottom=-1;spacingLeft=-1;spacingRight=-1;points=[];labelBackgroundColor=none;rounded=0;html=1;whiteSpace=wrap;" parent="1" vertex="1">
          <mxGeometry x="720" y="101" width="126" height="27" as="geometry" />
        </mxCell>
        <mxCell id="59" style="vsdxID=193;fillColor=none;gradientColor=none;strokeColor=none;spacingTop=-1;spacingBottom=-1;spacingLeft=-1;spacingRight=-1;points=[];labelBackgroundColor=none;rounded=0;html=1;whiteSpace=wrap;" parent="1" vertex="1">
          <mxGeometry x="730" y="176" width="21" height="18" as="geometry" />
        </mxCell>
        <mxCell id="60" style="vsdxID=194;fillColor=#2c5ccb;gradientColor=none;shape=stencil(lVbRcqMwDPwaXjW2ZGzz3Ov9R+eaXpjLJR2a3qV/X1NDLMmB0DdsdpldayXT0MPb/ul116B5Ow+nP7v//fN539CPBrE/7ndDf05PDT029PByGna/h9P78TmvX59G5Pj09/Rv/MIl86IHciMLzUfescZ8rX9m+KE/Mrgl8O0a/Nf7kD9v82sPFie8lQRzwbwxLT+mZUdgJsqFJGJaRgfOLWs0Qp/roItrCo2U5yw4qY9ZmHYoCVAS+cGQRt0+Sg8+CKnfJtgWWr/mjVOuBZmO4+oPEUInDRppjgwQSnMrGfEd+Ch0riYkBEArNaqARAIiKZC5oBpEC8cjdXLGpgKMvdKuE7S5FOYYpTkeHlQtMdtjISQNoYVcq7AY2QZVz1RRMaoReB+W1oxBKi3dTOWQnJS6OlHuDiA5r+oB5Nwc3yVnFqyT3gqneAMrnblw7fvZW8FsK0LBbyxCIUwbMQCprDA3c3+khiOp9MY4KqiNdagIWm2MEL3Sy6TMB2tATRdmiirMthnPCBvHPGPYusBYO8I6KssRr0Io5YYIQY7Eu6kNHlAd7o3UBgeoRqNDcEEK5qh5pKdC2RXBjLHxruGUufPSzaL0IliVBpsuF6V3vEGC1FtQN/XyG2qBoPVigKi6jUuZL8cWgh55xRXVoG13D2csFKTSyyi2LvWslyDoQNQJRguoLvQ7Cd4wd79NSA/lt/SlPxzyXy1/r39j01b+BabHTw==);strokeColor=none;strokeWidth=0;shadow=1;spacingTop=-3;spacingBottom=-3;spacingLeft=-3;spacingRight=-3;points=[];labelBackgroundColor=none;rounded=0;html=1;whiteSpace=wrap;" parent="59" vertex="1">
          <mxGeometry width="21" height="18" as="geometry" />
        </mxCell>
        <mxCell id="61" style="vsdxID=195;fillColor=#2c5ccb;gradientColor=none;shape=stencil(jZbdcoIwEIWfhtud/EAI17Z9D6diZWrFQW317QsNxZOE/NwlcA7ZPXwDW8jN5bA9t4Vgl+vQf7Y/3e56KORLIUR3OrRDdx1XhXwt5GbfD+3H0N9OO7M/byfltPrqv6cn3I2vpnLyCPYwe87Y3/7NiN9vg1Fzc1uS5LOe2wZ2F+bCvH3M24aTbmaFtBXzVi+K+dBjd4IKmV2fJs5jFTK7vEW+1Act2BX/l/eMxKo3cB7nVGr7TCcQXlLd2CdCVdIXyUCrdi7oCATp1QoW7r8e4Xck3Jccysjhxi41AZlNpKxIx9QekpzqFJNj4GWRwhJEeWSCIRNOcIT5hH7WAYWEcgiVDek4oaUkkQIUNHl8giETT3CE6cRuQnT6AUXxTBFn86lKp68En4oRd9ry+KwUOT2t8AmiPD7BkMknOIJ8Yj/rfEJCOXwqTcL5Kjnx1JxUik/Q5PEJhkw+wRHmE7sJ8ekHFOUzRZzNZyOcvhJ8ak1Vik9dkXC+SSuAoiqPUHRkIoqWIKPY0zqjkFIOo40iFWd0ySzyj2fO5JP6wzN79kn/35kz/azwiZ2E+PTDifKZIm5cPMfPfXc8mukV77vj6njJjLry9Rc=);strokeColor=none;strokeWidth=0;shadow=1;spacingTop=-3;spacingBottom=-3;spacingLeft=-3;spacingRight=-3;points=[];labelBackgroundColor=none;rounded=0;html=1;whiteSpace=wrap;" parent="59" vertex="1">
          <mxGeometry x="4" y="10" width="13" height="5" as="geometry" />
        </mxCell>
        <mxCell id="62" value="&lt;div style=&quot;font-size: 1px&quot;&gt;&lt;font style=&quot;font-size: 14.11px; font-family: SimSun; color: rgb(0, 0, 0); direction: ltr; letter-spacing: 0px; line-height: 120%; opacity: 1;&quot;&gt;LAN&lt;br&gt;&lt;/font&gt;&lt;/div&gt;" style="verticalAlign=middle;align=center;overflow=width;vsdxID=196;fillColor=none;gradientColor=none;shape=stencil(nZBLDoAgDERP0z3SIyjew0SURgSD+Lu9kMZoXLhwN9O+tukAlrNpJg1SzDH4QW/URgNYgZTkjA4UkwJUgGXng+6DX1zLfmoymdXo17xh5zmRJ6Q42BWCfc2oJfdAr+Yv+AP9Cb7OJ3H/2JG1HNGz/84klThPVCc=);strokeColor=none;spacingTop=-1;spacingBottom=-1;spacingLeft=-1;spacingRight=-1;points=[];labelBackgroundColor=none;rounded=0;html=1;whiteSpace=wrap;" parent="1" vertex="1">
          <mxGeometry x="719.5" y="151.5" width="42" height="16" as="geometry" />
        </mxCell>
        <mxCell id="53" style="vsdxID=187;fillColor=#000000;gradientColor=none;shape=stencil(lVfbUtwwDP2afdU4Unx7pu1/MGUpO6Uss0ALf195EluysgnhLeuV5JOjo0sOdPPycPt8PKB7eb2cfx//ne5eHw707YB4eno4Xk6v/HSg7we6uT9fjr8u57enu+n3822xLE9/zn9LhPfJL3gIQ/FC9zGdeAduOvkxOfx8u0wew9JlPvIB0E9H7zhbEYxhtqpHA6RxtqL5iC9LsxVJeH394+lJ40VIPd6Qa9Q1vBEGg5fvcMHg5TC+x+sjZG/wKivay5fymY9GXN6vUM5HNEK2fCHE3N9PDoYtwly76qOFHbcBc+oMYEow2AQrGcxHI0G0hCmrNcJ6RUam62uCVB5DU1pjbsYWGUjq4UaEgIv8ooHL0WNa5zcOTSQz3jSCw0/wEvWAGV0ygEuY0RQQQTCC0FZ7Bal9an4DUDSEKZTzEY5Vau3+8vrU3z94yBuEFYo7vtABbvPFqYs9XoxAaYHX5JdF66KBK0b71Jiwgqtwrb2RQ4Yxd/ZjbY1r2WAPowZm0LbT7CGadkpDo6W+nrbaqwbtU8sntdQ3NSqUIlBb7fz2pjuW6H6drkIvdXQNzm2iJXC5R5ti1VtDW4NIqTML1GMVm71MiUdVYYZsqqbgMzIcsPYDqVqlKrouq16G3LOpl9WnaLVLHTuqP1cRBfBm7OleX2dMliZHNvzVxFKURipzarMQCMHgLQMQDd4WRaYO82vxKqu92dU+da1hZZkxzSBT7u8vy0Qy90cw6ZUl4DpdWdqoHZxreFXmZOwli1epoK41vKyZLq6t9vXF0rS/pkflIUuFM+XD3XIxdKKMJkmv6eIl+EZXRrmpthlfS3cd7mLojIslqISxbTks8Gqr3c1G+cheFsySoFHKopNMOZTXN/eXHYA29Ohkz5Q1KG8SxqkzCS4LFi0AY49X72q0MNqnxiFCNPntx4iRg4N+ZZMZuNr6wZtslPFnio1Hvd3YeJKal1NGe7WgXGrpqNmPAtFIoewRS2q94bZFv8pVobbfxzfnc2gduy0zavyhjiAVrsYo9RZ7GTKDWY97bMDM14reG2ipI7oqJH6QT+n70+Pj9CWu/7ef3nw0fbbT9/8=);strokeColor=#939393;points=[[0.5,0.5,0]];labelBackgroundColor=none;rounded=0;html=1;whiteSpace=wrap;" parent="1" vertex="1">
          <mxGeometry x="770" y="132" width="50" height="37" as="geometry" />
        </mxCell>
        <mxCell id="54" style="vsdxID=188;fillColor=#000000;gradientColor=none;shape=stencil(pZPdkoIwDIWfpreZ0JRgr119D0dROiI4Bf/eXrBVCe4yzuxdenrSL2lTRfOmWB1zpbFpfb3PL27TFop+lNauKnLv2i5StFA039Y+3/n6VG3C+rjqnX10qM/9CdeQRwxEfZbGW1DM7LFcBnfpqkl3gvi3nQk4+49d1rI++VB6EnZnBthEf5RMCmiDdNUSibcoUAqcRg+NPVHQBgxPsd8ZLwEsS3KWASeSjZJrLFgryThF1RrISi5K5qjXYVUkHd92OupzeHtPSArEkjt8B/qcHfrtebvgPaVbV5bDnfE8d1L4C7S4Aw==);strokeColor=#939393;points=[[0.5,0.5,0]];labelBackgroundColor=none;rounded=0;html=1;whiteSpace=wrap;" parent="1" vertex="1">
          <mxGeometry x="791" y="146" width="8" height="16" as="geometry" />
        </mxCell>
        <mxCell id="55" style="vsdxID=189;fillColor=#000000;gradientColor=none;shape=stencil(UzV2Ls5ILEhVNTIoLinKz04tz0wpyVA1dlE1MsrMy0gtyiwBslSNXVWNndPyi1LTi/JL81Ig/IJEkEoQKze/DGRCBUSfoYEBSI+RQSUq3w2iOCczD0kxCUqNjfSMTFGU41FsZq5nTrRiAi4GMhB+TcvMyYEEFbI8etgAhSDhauwKAA==);strokeColor=#939393;points=[[0.5,0.5,0]];labelBackgroundColor=none;rounded=0;html=1;whiteSpace=wrap;" parent="1" vertex="1">
          <mxGeometry x="784" y="163" width="22" height="43" as="geometry" />
        </mxCell>
      </root>
    </mxGraphModel>
  </diagram>
</mxfile>
